<svg width="45" height="39" viewBox="0 0 45 39" fill="none" xmlns="http://www.w3.org/2000/svg">
<path d="M37.5 19.2858C37.5 26.3733 30.7687 32.1429 22.5 32.1429C14.2312 32.1429 7.5 26.3733 7.5 19.2858C7.5 12.1983 14.2312 6.42864 22.5 6.42864C30.7687 6.42864 37.5 12.1983 37.5 19.2858ZM41.25 19.2858C41.25 10.4144 32.85 3.21436 22.5 3.21436C12.15 3.21436 3.75 10.4144 3.75 19.2858C3.75 28.1572 12.15 35.3572 22.5 35.3572C32.85 35.3572 41.25 28.1572 41.25 19.2858ZM22.5 20.8929H30L30 17.6786L22.5 17.6786V12.8572L15 19.2858L22.5 25.7144L22.5 20.8929Z" fill="white"/>
</svg>
