<svg width="36" height="36" viewBox="0 0 36 36" fill="none" xmlns="http://www.w3.org/2000/svg">
<path d="M31.5833 18.3845C31.5833 26.102 25.3008 32.3845 17.5833 32.3845C9.86575 32.3845 3.58325 26.102 3.58325 18.3845C3.58325 10.667 9.86575 4.38452 17.5833 4.38452C25.3008 4.38452 31.5833 10.667 31.5833 18.3845ZM35.0833 18.3845C35.0833 8.72452 27.2433 0.884521 17.5833 0.884521C7.92325 0.884521 0.083252 8.72452 0.083252 18.3845C0.083252 28.0445 7.92325 35.8845 17.5833 35.8845C27.2433 35.8845 35.0833 28.0445 35.0833 18.3845ZM17.5833 20.1345L24.5833 20.1345L24.5833 16.6345L17.5833 16.6345V11.3845L10.5833 18.3845L17.5833 25.3845L17.5833 20.1345Z" fill="white"/>
</svg>
