<svg width="20" height="25" viewBox="0 0 20 25" fill="none" xmlns="http://www.w3.org/2000/svg">
<path d="M10 6.66667C11.2333 6.66667 12.2222 5.66667 12.2222 4.44444C12.2222 4.02222 12.1111 3.63333 11.9 3.3L10 0L8.1 3.3C7.88889 3.63333 7.77778 4.02222 7.77778 4.44444C7.77778 5.66667 8.77778 6.66667 10 6.66667ZM16.6667 10H11.1111V7.77778H8.88889V10H3.33333C1.48889 10 0 11.4889 0 13.3333V23.3333C0 23.9444 0.5 24.4444 1.11111 24.4444H18.8889C19.5 24.4444 20 23.9444 20 23.3333V13.3333C20 11.4889 18.5111 10 16.6667 10ZM17.7778 22.2222H2.22222V18.8889C3.22222 18.8778 4.17778 18.4778 4.88889 17.7667L6.1 16.5778L7.28889 17.7667C8.74444 19.2222 11.2778 19.2111 12.7222 17.7667L13.9222 16.5778L15.1111 17.7667C15.8222 18.4778 16.7778 18.8778 17.7778 18.8889V22.2222ZM17.7778 17.2222C17.2111 17.2111 16.6778 17 16.2778 16.5889L13.9111 14.2222L11.5333 16.5889C10.7111 17.4111 9.27778 17.4111 8.45556 16.5889L6.08889 14.2222L3.71111 16.5889C3.32222 16.9889 2.78889 17.2111 2.22222 17.2222V13.3333C2.22222 12.7222 2.72222 12.2222 3.33333 12.2222H16.6667C17.2778 12.2222 17.7778 12.7222 17.7778 13.3333V17.2222Z" fill="white"/>
</svg>
