<svg width="21" height="20" viewBox="0 0 21 20" fill="none" xmlns="http://www.w3.org/2000/svg">
<path d="M8.85684 11C8.85684 11.69 8.28156 12.25 7.57274 12.25C6.86393 12.25 6.28865 11.69 6.28865 11C6.28865 10.31 6.86393 9.75 7.57274 9.75C8.28156 9.75 8.85684 10.31 8.85684 11ZM13.7364 9.75C13.0276 9.75 12.4523 10.31 12.4523 11C12.4523 11.69 13.0276 12.25 13.7364 12.25C14.4452 12.25 15.0205 11.69 15.0205 11C15.0205 10.31 14.4452 9.75 13.7364 9.75ZM20.9273 10C20.9273 15.52 16.3251 20 10.6546 20C4.98402 20 0.381836 15.52 0.381836 10C0.381836 4.48 4.98402 0 10.6546 0C16.3251 0 20.9273 4.48 20.9273 10ZM9.27802 2.12C10.7162 4.44 13.3255 6 16.3046 6C16.7771 6 17.2394 5.95 17.6811 5.88C16.2429 3.56 13.6337 2 10.6546 2C10.182 2 9.71974 2.05 9.27802 2.12ZM2.86784 7.47C4.62447 6.5 5.98047 4.92 6.62765 3.03C4.87102 4 3.51502 5.58 2.86784 7.47ZM18.8727 10C18.8727 9.22 18.7495 8.47 18.5337 7.76C17.8147 7.91 17.075 8 16.3046 8C13.0892 8 10.2231 6.56 8.33293 4.31C7.25429 6.87 5.10729 8.88 2.43638 9.86C2.44665 9.9 2.43638 9.95 2.43638 10C2.43638 14.41 6.12429 18 10.6546 18C15.1848 18 18.8727 14.41 18.8727 10Z" fill="white"/>
</svg>
