<svg width="24" height="14" viewBox="0 0 24 14" fill="none" xmlns="http://www.w3.org/2000/svg">
<g clip-path="url(#clip0_5_1674)">
<path fill-rule="evenodd" clip-rule="evenodd" d="M2.61133 0H24V11.9391H22.4883L22.5938 3.17878V3.07466C22.5938 2.70296 22.4471 2.34647 22.186 2.08346C21.9249 1.82045 21.5707 1.67243 21.2012 1.67191H2.60742V0H2.61133ZM0 2.83301H21.3887V14H0V2.83301Z" fill="#427D2A"/>
<path fill-rule="evenodd" clip-rule="evenodd" d="M17.9141 4.56787C17.9223 4.98414 18.089 5.38137 18.3796 5.67778C18.6703 5.97418 19.0629 6.14719 19.4766 6.16119V10.5797C19.2551 10.5799 19.036 10.6246 18.832 10.7111C18.6279 10.7977 18.4432 10.9245 18.2885 11.0839C18.1339 11.2433 18.0124 11.4322 17.9314 11.6394C17.8503 11.8467 17.8112 12.0682 17.8164 12.2909H3.59766C3.60409 11.8608 3.44298 11.4453 3.14879 11.1333C2.8546 10.8212 2.45068 10.6373 2.02344 10.6209V6.20245C2.45945 6.20717 2.87952 6.03772 3.19149 5.73128C3.50345 5.42485 3.68184 5.00644 3.6875 4.56787H17.9141Z" fill="#87CC71"/>
<path fill-rule="evenodd" clip-rule="evenodd" d="M7.86717 6.91149C8.17155 6.33668 8.63856 5.86557 9.20913 5.55775C9.7797 5.24993 10.4282 5.11923 11.0726 5.18216C11.7171 5.24509 12.3284 5.49884 12.8295 5.91132C13.3305 6.32379 13.6987 6.87646 13.8875 7.49944C14.0763 8.12241 14.0772 8.7877 13.89 9.41118C13.7029 10.0347 13.3362 10.5883 12.8362 11.0021C12.3362 11.4159 11.7255 11.6713 11.0813 11.7359C10.437 11.8006 9.78816 11.6716 9.21678 11.3653C8.83728 11.1622 8.5013 10.8858 8.22806 10.552C7.95482 10.2181 7.74966 9.8334 7.62432 9.41976C7.49898 9.00613 7.45591 8.5717 7.49758 8.14132C7.53925 7.71093 7.66484 7.29302 7.86717 6.91149Z" fill="#427D2A"/>
<path d="M10.7852 10.8803C10.745 10.8808 10.7052 10.8732 10.668 10.858C10.6308 10.8428 10.597 10.8202 10.5686 10.7917C10.5402 10.7631 10.5178 10.7291 10.5026 10.6917C10.4875 10.6543 10.48 10.6142 10.4805 10.5738V10.2752C10.3042 10.2652 10.1297 10.2335 9.96098 10.1809C9.83065 10.1373 9.70395 10.0834 9.58207 10.0198C9.54042 10.0017 9.50314 9.9748 9.4728 9.94089C9.44246 9.90697 9.41977 9.86686 9.40629 9.8233C9.38311 9.74106 9.38723 9.65346 9.41801 9.57379C9.44851 9.4977 9.50639 9.43597 9.58012 9.4009C9.62385 9.38384 9.67088 9.37709 9.71761 9.38117C9.76434 9.38526 9.80951 9.40008 9.84965 9.42448C9.95804 9.47969 10.0711 9.52506 10.1875 9.56004C10.3603 9.60921 10.5393 9.63238 10.7188 9.6288C10.8911 9.64391 11.0637 9.60477 11.2129 9.51682C11.2585 9.48531 11.2957 9.44305 11.3212 9.39372C11.3468 9.3444 11.3599 9.28952 11.3594 9.23391C11.3602 9.19074 11.3516 9.14792 11.334 9.10852C11.3164 9.06912 11.2904 9.03411 11.2579 9.00601C11.1507 8.92747 11.0259 8.87685 10.8946 8.85866L10.3399 8.73686C9.7266 8.60588 9.41996 8.27844 9.41996 7.75454C9.41736 7.62067 9.44162 7.48765 9.49129 7.36343C9.54096 7.23921 9.61501 7.12633 9.70902 7.03155C9.91906 6.8268 10.1901 6.69705 10.4805 6.6622V6.34393C10.4798 6.30397 10.4871 6.26427 10.5018 6.22717C10.5166 6.19006 10.5386 6.15628 10.5664 6.12782C10.595 6.09884 10.6291 6.07604 10.6667 6.06084C10.7043 6.04563 10.7447 6.03834 10.7852 6.03941C10.8245 6.03848 10.8637 6.04586 10.9 6.06109C10.9363 6.07632 10.9691 6.09905 10.9961 6.12782C11.024 6.15628 11.046 6.19006 11.0607 6.22717C11.0755 6.26427 11.0827 6.30397 11.0821 6.34393V6.64845C11.2148 6.66607 11.3456 6.69633 11.4727 6.73882C11.5973 6.77964 11.7157 6.83783 11.8243 6.91171C11.8608 6.93287 11.8927 6.96114 11.9182 6.99488C11.9437 7.02862 11.9622 7.06713 11.9727 7.10817C11.9906 7.18398 11.9823 7.26364 11.9493 7.33411C11.9335 7.36892 11.9108 7.40012 11.8826 7.4258C11.8543 7.45147 11.8212 7.47108 11.7852 7.48342C11.7392 7.49682 11.691 7.50042 11.6436 7.49399C11.5962 7.48756 11.5506 7.47125 11.5098 7.44609C11.4147 7.39905 11.3153 7.36154 11.2129 7.33411C11.0853 7.30162 10.9539 7.28642 10.8223 7.28892C10.6603 7.27903 10.4994 7.32173 10.3633 7.41073C10.3117 7.44494 10.2694 7.49166 10.2404 7.54658C10.2114 7.60151 10.1966 7.66288 10.1973 7.72507C10.1961 7.76762 10.2043 7.80991 10.2212 7.84895C10.238 7.88799 10.2632 7.92283 10.295 7.951C10.3972 8.02622 10.5156 8.07603 10.6407 8.09638L11.2012 8.21819C11.4671 8.26116 11.7144 8.38213 11.9122 8.56593C11.9888 8.64852 12.0485 8.74554 12.0877 8.85142C12.1269 8.95729 12.1449 9.06992 12.1407 9.18283C12.1449 9.31516 12.1214 9.4469 12.0716 9.56945C12.0218 9.69201 11.9468 9.80261 11.8516 9.89403C11.6414 10.0881 11.378 10.214 11.0957 10.2555V10.5738C11.0965 10.6138 11.0893 10.6535 11.0746 10.6906C11.0598 10.7277 11.0378 10.7615 11.0098 10.7899C10.9829 10.8189 10.9502 10.842 10.9138 10.8575C10.8775 10.8731 10.8383 10.8808 10.7989 10.8803H10.7852Z" fill="white"/>
</g>
<defs>
<clipPath id="clip0_5_1674">
<rect width="24" height="14" fill="white"/>
</clipPath>
</defs>
</svg>
