<svg width="61" height="52" viewBox="0 0 61 52" fill="none" xmlns="http://www.w3.org/2000/svg">
<path d="M15.0818 0C10.9343 0 7.23926 1.73441 4.44913 4.44913C1.73441 7.16385 0 10.8589 0 15.0818C0 19.2293 1.73441 22.9243 4.44913 25.7145L30.1636 51.4289L55.8781 25.7145C58.5928 22.9997 60.3272 19.3047 60.3272 15.0818C60.3272 10.9343 58.5928 7.23926 55.8781 4.44913C53.1633 1.73441 49.4683 0 45.2454 0C41.0979 0 37.4029 1.73441 34.6127 4.44913C31.898 7.16385 30.1636 10.8589 30.1636 15.0818C30.1636 10.9343 28.4292 7.23926 25.7145 4.44913C22.9997 1.73441 19.3047 0 15.0818 0Z" fill="white"/>
</svg>
