<svg width="125" height="24" viewBox="0 0 125 24" fill="none" xmlns="http://www.w3.org/2000/svg">
<path d="M8.77841 9C8.74053 8.52652 8.56297 8.1572 8.24574 7.89205C7.93324 7.62689 7.45739 7.49432 6.81818 7.49432C6.41098 7.49432 6.07718 7.54403 5.81676 7.64347C5.56108 7.73816 5.37169 7.86837 5.24858 8.03409C5.12547 8.19981 5.06155 8.3892 5.05682 8.60227C5.04735 8.77746 5.07813 8.93608 5.14915 9.07812C5.22491 9.21544 5.34328 9.34091 5.50426 9.45455C5.66525 9.56345 5.87121 9.66288 6.12216 9.75284C6.37311 9.8428 6.6714 9.9233 7.01705 9.99432L8.21023 10.25C9.01515 10.4205 9.70407 10.6454 10.277 10.9247C10.8499 11.2041 11.3187 11.5331 11.6832 11.9119C12.0478 12.286 12.3153 12.7074 12.4858 13.1761C12.661 13.6449 12.7509 14.1562 12.7557 14.7102C12.7509 15.6667 12.5118 16.4763 12.0384 17.1392C11.5649 17.8021 10.8878 18.3063 10.0071 18.652C9.13116 18.9976 8.07765 19.1705 6.84659 19.1705C5.58239 19.1705 4.47917 18.9834 3.53693 18.6094C2.59943 18.2353 1.87027 17.66 1.34943 16.8835C0.833333 16.1023 0.572917 15.1032 0.568182 13.8864H4.31818C4.34186 14.3314 4.45313 14.7055 4.65199 15.0085C4.85085 15.3116 5.13021 15.5412 5.49006 15.6974C5.85464 15.8537 6.28788 15.9318 6.78977 15.9318C7.21117 15.9318 7.56392 15.8797 7.84801 15.7756C8.1321 15.6714 8.34754 15.527 8.49432 15.3423C8.6411 15.1577 8.71686 14.947 8.72159 14.7102C8.71686 14.4877 8.64347 14.2936 8.50142 14.1278C8.36411 13.9574 8.13684 13.8059 7.8196 13.6733C7.50237 13.536 7.07386 13.4081 6.53409 13.2898L5.08523 12.9773C3.79735 12.6979 2.78172 12.2315 2.03835 11.5781C1.29972 10.92 0.932765 10.0227 0.9375 8.88636C0.932765 7.96307 1.17898 7.15578 1.67614 6.46449C2.17803 5.76847 2.87169 5.22633 3.7571 4.83807C4.64725 4.44981 5.66761 4.25568 6.81818 4.25568C7.99242 4.25568 9.00805 4.45218 9.86506 4.84517C10.7221 5.23816 11.3826 5.79214 11.8466 6.5071C12.3153 7.21733 12.5521 8.0483 12.5568 9H8.77841ZM26.843 4.45455V19H23.5476L18.2919 11.358H18.2067V19H14.2578V4.45455H17.6101L22.7805 12.0682H22.8942V4.45455H26.843ZM89.4425 11.7273C89.4425 13.3466 89.1276 14.7126 88.4979 15.8253C87.8681 16.9332 87.0182 17.7737 85.9482 18.3466C84.8781 18.9148 83.6849 19.1989 82.3686 19.1989C81.0429 19.1989 79.8449 18.9124 78.7749 18.3395C77.7095 17.7618 76.862 16.919 76.2322 15.8111C75.6072 14.6984 75.2947 13.3371 75.2947 11.7273C75.2947 10.108 75.6072 8.74432 76.2322 7.63636C76.862 6.52367 77.7095 5.68324 78.7749 5.11506C79.8449 4.54214 81.0429 4.25568 82.3686 4.25568C83.6849 4.25568 84.8781 4.54214 85.9482 5.11506C87.0182 5.68324 87.8681 6.52367 88.4979 7.63636C89.1276 8.74432 89.4425 10.108 89.4425 11.7273ZM85.38 11.7273C85.38 10.8561 85.264 10.1222 85.032 9.52557C84.8047 8.92424 84.4661 8.4697 84.0163 8.16193C83.5713 7.84943 83.022 7.69318 82.3686 7.69318C81.7152 7.69318 81.1636 7.84943 80.7138 8.16193C80.2687 8.4697 79.9302 8.92424 79.6982 9.52557C79.4709 10.1222 79.3572 10.8561 79.3572 11.7273C79.3572 12.5985 79.4709 13.3348 79.6982 13.9361C79.9302 14.5327 80.2687 14.9872 80.7138 15.2997C81.1636 15.6075 81.7152 15.7614 82.3686 15.7614C83.022 15.7614 83.5713 15.6075 84.0163 15.2997C84.4661 14.9872 84.8047 14.5327 85.032 13.9361C85.264 13.3348 85.38 12.5985 85.38 11.7273ZM99.8775 4.45455H103.826V13.7727C103.826 14.8807 103.561 15.8395 103.031 16.6491C102.505 17.4541 101.771 18.0767 100.829 18.517C99.887 18.9527 98.7932 19.1705 97.5479 19.1705C96.2932 19.1705 95.1947 18.9527 94.2525 18.517C93.3103 18.0767 92.5763 17.4541 92.0508 16.6491C91.5299 15.8395 91.2695 14.8807 91.2695 13.7727V4.45455H95.2184V13.4318C95.2184 13.8816 95.3178 14.2841 95.5167 14.6392C95.7156 14.9896 95.9902 15.2642 96.3406 15.4631C96.6957 15.6619 97.0981 15.7614 97.5479 15.7614C98.0025 15.7614 98.4049 15.6619 98.7553 15.4631C99.1057 15.2642 99.3803 14.9896 99.5792 14.6392C99.7781 14.2841 99.8775 13.8816 99.8775 13.4318V4.45455ZM105.305 7.63636V4.45455H117.947V7.63636H113.572V19H109.68V7.63636H105.305Z" fill="white"/>
<path d="M28.7109 19V4.45455H39.1939V7.63636H32.6598V10.1364H38.6541V13.3182H32.6598V15.8182H39.1655V19H28.7109ZM44.9308 19H40.6694L45.4705 4.45455H50.8683L55.6694 19H51.408L48.2262 8.46023H48.1126L44.9308 19ZM44.1353 13.2614H52.1467V16.2159H44.1353V13.2614ZM57.0703 19V4.45455H61.0192V10.3352H61.218L65.593 4.45455H70.1953L65.2805 10.9318L70.3089 19H65.593L62.326 13.5455L61.0192 15.25V19H57.0703ZM120.938 19.2273C120.388 19.2273 119.917 19.0355 119.524 18.652C119.136 18.2637 118.944 17.7926 118.949 17.2386C118.944 16.6989 119.136 16.2372 119.524 15.8537C119.917 15.4702 120.388 15.2784 120.938 15.2784C121.458 15.2784 121.918 15.4702 122.315 15.8537C122.718 16.2372 122.921 16.6989 122.926 17.2386C122.921 17.608 122.824 17.9441 122.635 18.2472C122.45 18.5455 122.209 18.7846 121.911 18.9645C121.612 19.1397 121.288 19.2273 120.938 19.2273Z" fill="url(#paint0_linear_64_128)"/>
<defs>
<linearGradient id="paint0_linear_64_128" x1="62.5" y1="0" x2="62.5" y2="24" gradientUnits="userSpaceOnUse">
<stop stop-color="#00FF85"/>
<stop offset="1" stop-color="#06F3E5"/>
</linearGradient>
</defs>
</svg>
