<svg width="245" height="31" viewBox="0 0 245 31" fill="none" xmlns="http://www.w3.org/2000/svg">
<path d="M16.5568 10C16.4811 9.05303 16.1259 8.31439 15.4915 7.78409C14.8665 7.25379 13.9148 6.98864 12.6364 6.98864C11.822 6.98864 11.1544 7.08807 10.6335 7.28693C10.1222 7.47633 9.74337 7.73674 9.49716 8.06818C9.25095 8.39962 9.12311 8.77841 9.11364 9.20455C9.0947 9.55492 9.15625 9.87216 9.2983 10.1562C9.44981 10.4309 9.68655 10.6818 10.0085 10.9091C10.3305 11.1269 10.7424 11.3258 11.2443 11.5057C11.7462 11.6856 12.3428 11.8466 13.0341 11.9886L15.4205 12.5C17.0303 12.8409 18.4081 13.2907 19.554 13.8494C20.6998 14.4081 21.6373 15.0663 22.3665 15.8239C23.0956 16.572 23.6307 17.4148 23.9716 18.3523C24.322 19.2898 24.5019 20.3125 24.5114 21.4205C24.5019 23.3333 24.0237 24.9527 23.0767 26.2784C22.1297 27.6042 20.7756 28.6127 19.0142 29.304C17.2623 29.9953 15.1553 30.3409 12.6932 30.3409C10.1648 30.3409 7.95833 29.9669 6.07386 29.2188C4.19886 28.4706 2.74053 27.3201 1.69886 25.767C0.666667 24.2045 0.145833 22.2064 0.136364 19.7727H7.63636C7.68371 20.6629 7.90625 21.411 8.30398 22.017C8.7017 22.6231 9.26042 23.0824 9.98011 23.3949C10.7093 23.7074 11.5758 23.8636 12.5795 23.8636C13.4223 23.8636 14.1278 23.7595 14.696 23.5511C15.2642 23.3428 15.6951 23.054 15.9886 22.6847C16.2822 22.3153 16.4337 21.8939 16.4432 21.4205C16.4337 20.9754 16.2869 20.5871 16.0028 20.2557C15.7282 19.9148 15.2737 19.6117 14.6392 19.3466C14.0047 19.072 13.1477 18.8163 12.0682 18.5795L9.17045 17.9545C6.5947 17.3958 4.56345 16.4631 3.0767 15.1562C1.59943 13.84 0.86553 12.0455 0.875 9.77273C0.86553 7.92614 1.35795 6.31155 2.35227 4.92898C3.35606 3.53693 4.74337 2.45265 6.5142 1.67614C8.29451 0.89962 10.3352 0.511363 12.6364 0.511363C14.9848 0.511363 17.0161 0.904355 18.7301 1.69034C20.4441 2.47633 21.7652 3.58428 22.6932 5.0142C23.6307 6.43466 24.1042 8.09659 24.1136 10H16.5568ZM52.6861 0.90909V30H46.0952L35.5838 14.7159H35.4134V30H27.5156V0.90909H34.2202L44.5611 16.1364H44.7884V0.90909H52.6861ZM177.885 15.4545C177.885 18.6932 177.255 21.4252 175.996 23.6506C174.736 25.8665 173.036 27.5473 170.896 28.6932C168.756 29.8295 166.37 30.3977 163.737 30.3977C161.086 30.3977 158.69 29.8248 156.55 28.679C154.419 27.5237 152.724 25.8381 151.464 23.6222C150.214 21.3968 149.589 18.6742 149.589 15.4545C149.589 12.2159 150.214 9.48864 151.464 7.27273C152.724 5.04735 154.419 3.36648 156.55 2.23011C158.69 1.08428 161.086 0.511363 163.737 0.511363C166.37 0.511363 168.756 1.08428 170.896 2.23011C173.036 3.36648 174.736 5.04735 175.996 7.27273C177.255 9.48864 177.885 12.2159 177.885 15.4545ZM169.76 15.4545C169.76 13.7121 169.528 12.2443 169.064 11.0511C168.609 9.84848 167.932 8.93939 167.033 8.32386C166.143 7.69886 165.044 7.38636 163.737 7.38636C162.43 7.38636 161.327 7.69886 160.428 8.32386C159.537 8.93939 158.86 9.84848 158.396 11.0511C157.942 12.2443 157.714 13.7121 157.714 15.4545C157.714 17.197 157.942 18.6695 158.396 19.8722C158.86 21.0653 159.537 21.9744 160.428 22.5994C161.327 23.215 162.43 23.5227 163.737 23.5227C165.044 23.5227 166.143 23.215 167.033 22.5994C167.932 21.9744 168.609 21.0653 169.064 19.8722C169.528 18.6695 169.76 17.197 169.76 15.4545ZM198.755 0.90909H206.653V19.5455C206.653 21.7614 206.122 23.679 205.062 25.2983C204.011 26.9081 202.543 28.1534 200.658 29.0341C198.774 29.9053 196.586 30.3409 194.096 30.3409C191.586 30.3409 189.389 29.9053 187.505 29.0341C185.621 28.1534 184.153 26.9081 183.102 25.2983C182.06 23.679 181.539 21.7614 181.539 19.5455V0.90909H189.437V18.8636C189.437 19.7633 189.636 20.5682 190.033 21.2784C190.431 21.9792 190.98 22.5284 191.681 22.9261C192.391 23.3239 193.196 23.5227 194.096 23.5227C195.005 23.5227 195.81 23.3239 196.511 22.9261C197.211 22.5284 197.761 21.9792 198.158 21.2784C198.556 20.5682 198.755 19.7633 198.755 18.8636V0.90909ZM209.611 7.27273V0.90909H234.895V7.27273H226.145V30H218.361V7.27273H209.611Z" fill="white"/>
<path d="M56.4219 30V0.90909H77.3878V7.27273H64.3196V12.2727H76.3082V18.6364H64.3196V23.6364H77.331V30H56.4219ZM88.8615 30H80.3388L89.9411 0.90909H100.737L110.339 30H101.816L95.4524 8.92045H95.2251L88.8615 30ZM87.2706 18.5227H103.293V24.4318H87.2706V18.5227ZM113.141 30V0.90909H121.038V12.6705H121.436L130.186 0.90909H139.391L129.561 13.8636L139.618 30H130.186L123.652 19.0909L121.038 22.5V30H113.141ZM240.875 30.4545C239.777 30.4545 238.834 30.071 238.048 29.304C237.272 28.5275 236.888 27.5852 236.898 26.4773C236.888 25.3977 237.272 24.4744 238.048 23.7074C238.834 22.9403 239.777 22.5568 240.875 22.5568C241.917 22.5568 242.835 22.9403 243.631 23.7074C244.436 24.4744 244.843 25.3977 244.852 26.4773C244.843 27.2159 244.649 27.8883 244.27 28.4943C243.901 29.0909 243.418 29.5691 242.821 29.929C242.224 30.2794 241.576 30.4545 240.875 30.4545Z" fill="url(#paint0_linear_7_1810)"/>
<defs>
<linearGradient id="paint0_linear_7_1810" x1="124.5" y1="-9" x2="124.5" y2="38" gradientUnits="userSpaceOnUse">
<stop stop-color="#00FF85"/>
<stop offset="1" stop-color="#06F3E5"/>
</linearGradient>
</defs>
</svg>
