<svg width="40" height="28" viewBox="0 0 40 28" fill="none" xmlns="http://www.w3.org/2000/svg">
<path d="M24.1227 6.66211H15.8553V21.3378H24.1227V6.66211Z" fill="#FF5F00"/>
<path d="M16.3803 14.0001C16.379 12.5867 16.7032 11.1915 17.3284 9.92025C17.9536 8.64895 18.8635 7.53483 19.989 6.66222C18.5952 5.57997 16.9212 4.90695 15.1585 4.72005C13.3957 4.53316 11.6153 4.83994 10.0207 5.60534C8.42615 6.37074 7.08173 7.56387 6.14115 9.04836C5.20057 10.5328 4.70178 12.2488 4.70178 14.0001C4.70178 15.7513 5.20057 17.4673 6.14115 18.9518C7.08173 20.4363 8.42615 21.6294 10.0207 22.3948C11.6153 23.1602 13.3957 23.467 15.1585 23.2801C16.9212 23.0932 18.5952 22.4202 19.989 21.3379C18.8635 20.4653 17.9537 19.3512 17.3284 18.0799C16.7032 16.8086 16.379 15.4134 16.3803 14.0001Z" fill="#EB001B"/>
<path d="M35.2758 14.0001C35.2758 15.7513 34.7771 17.4673 33.8366 18.9517C32.896 20.4362 31.5517 21.6294 29.9571 22.3948C28.3626 23.1602 26.5822 23.467 24.8195 23.2801C23.0567 23.0932 21.3828 22.4202 19.989 21.3379C21.1136 20.4644 22.0227 19.3501 22.6478 18.079C23.2729 16.8079 23.5977 15.4132 23.5977 14.0001C23.5977 12.5869 23.2729 11.1922 22.6478 9.92111C22.0227 8.65001 21.1136 7.5357 19.989 6.66221C21.3828 5.57997 23.0567 4.90694 24.8195 4.72005C26.5822 4.53316 28.3626 4.83995 29.9571 5.60536C31.5517 6.37076 32.896 7.5639 33.8366 9.04839C34.7771 10.5329 35.2758 12.2488 35.2758 14.0001Z" fill="#F79E1B"/>
<path d="M34.3743 19.7837V19.4832H34.4969V19.422H34.1846V19.4832H34.3073V19.7837H34.3743ZM34.9807 19.7837V19.4214H34.8849L34.7748 19.6706L34.6647 19.4214H34.5689V19.7837H34.6365V19.5104L34.7397 19.746H34.8098L34.9131 19.5098V19.7837H34.9807Z" fill="#F79E1B"/>
</svg>
