<svg width="20" height="20" viewBox="0 0 20 20" fill="none" xmlns="http://www.w3.org/2000/svg">
<g clip-path="url(#clip0_5_1658)">
<path d="M17 0H3C1.34315 0 0 1.34315 0 3V17C0 18.6569 1.34315 20 3 20H17C18.6569 20 20 18.6569 20 17V3C20 1.34315 18.6569 0 17 0Z" fill="white"/>
<path d="M14.7266 7.21875L7.05864 15.5859H4.24614C4.05083 15.5859 3.89458 15.3906 3.93364 15.1953L5.80864 3.32031C5.8477 3.04688 6.08208 2.85156 6.35551 2.85156H11.1211C14.4024 2.96875 15.3008 4.64844 14.7149 7.22656L14.7266 7.21875Z" fill="#002C8A"/>
<path d="M14.8516 6.44531C16.0235 7.07031 16.2969 8.24219 15.9063 9.80469C15.3985 12.1094 13.875 13.0859 11.6485 13.125L11.0235 13.1641C10.7891 13.1641 10.6329 13.3203 10.5938 13.5547L10.086 16.6406C10.0469 16.9141 9.81254 17.1094 9.53911 17.1094H7.19536C7.00004 17.1094 6.84379 16.9141 6.88286 16.7188L7.74223 11.1328C7.78129 10.9375 14.8516 6.44531 14.8516 6.44531Z" fill="#009BE1"/>
<path d="M7.69531 11.4062L8.47656 6.44531C8.50219 6.32782 8.56583 6.22206 8.65763 6.14438C8.74942 6.0667 8.86426 6.02145 8.98438 6.01562H12.7344C13.6328 6.01562 14.2969 6.17188 14.8438 6.44531C14.6484 8.16406 13.8281 10.9375 9.84375 11.0156H8.125C7.92969 11.0156 7.73438 11.1719 7.69531 11.4062Z" fill="#001F6B"/>
</g>
<defs>
<clipPath id="clip0_5_1658">
<rect width="20" height="20" fill="white"/>
</clipPath>
</defs>
</svg>
