<svg width="37" height="26" viewBox="0 0 37 26" fill="none" xmlns="http://www.w3.org/2000/svg">
<path fill-rule="evenodd" clip-rule="evenodd" d="M11.4205 17.4287H9.23711L7.59977 11.1202C7.52207 10.83 7.35705 10.5734 7.11433 10.4525C6.50857 10.1487 5.84107 9.90684 5.11292 9.7849V9.542H8.63026C9.11575 9.542 9.47982 9.90684 9.54048 10.3306L10.39 14.8811L12.5724 9.542H14.6952L11.4205 17.4287ZM15.9088 17.4287H13.8467L15.5447 9.542H17.6068L15.9088 17.4287ZM20.2746 11.7268C20.3353 11.3021 20.6994 11.0592 21.1242 11.0592C21.7917 10.9982 22.5188 11.1202 23.1256 11.423L23.4897 9.72494C22.8828 9.48205 22.2154 9.36011 21.6096 9.36011C19.6082 9.36011 18.1519 10.4525 18.1519 11.9687C18.1519 13.1221 19.1834 13.7277 19.9116 14.0925C20.6994 14.4563 21.0028 14.6992 20.9421 15.063C20.9421 15.6087 20.3353 15.8516 19.7296 15.8516C19.0014 15.8516 18.2732 15.6697 17.6068 15.3658L17.2427 17.0649C17.9709 17.3677 18.7587 17.4897 19.4869 17.4897C21.731 17.5496 23.1256 16.4582 23.1256 14.8201C23.1256 12.7572 20.2746 12.6363 20.2746 11.7268ZM30.3424 17.4287L28.705 9.542H26.9464C26.5822 9.542 26.2182 9.7849 26.0968 10.1487L23.0649 17.4287H25.1877L25.6114 16.2763H28.2196L28.4623 17.4287H30.3424ZM27.2497 11.6659L27.8555 14.6382H26.1575L27.2497 11.6659Z" fill="white"/>
</svg>
